<svg width="7" height="15" viewBox="0 0 7 15" fill="none" xmlns="http://www.w3.org/2000/svg">
<path d="M0.229994 13.75C0.229993 14.0214 0.318339 14.2855 0.48168 14.5022C0.645022 14.719 0.874483 14.8767 1.13539 14.9516C1.3963 15.0264 1.67447 15.0143 1.92787 14.917C2.18128 14.8198 2.39614 14.6427 2.53999 14.4125L5.89999 11.0537C6.01605 10.9376 6.10809 10.7998 6.17087 10.648C6.23365 10.4963 6.26593 10.3337 6.26587 10.1696C6.26581 10.0054 6.23342 9.8428 6.17053 9.69114C6.10765 9.53947 6.01551 9.40168 5.89937 9.28562C5.78323 9.16957 5.64537 9.07752 5.49366 9.01475C5.34195 8.95197 5.17936 8.91969 5.01518 8.91975C4.85099 8.9198 4.68843 8.9522 4.53676 9.01509C4.38509 9.07797 4.2473 9.17011 4.13124 9.28625L2.73124 10.6862V1.25C2.73124 0.918479 2.59955 0.600537 2.36513 0.366117C2.13071 0.131696 1.81276 0 1.48124 0C1.14972 0 0.83178 0.131696 0.59736 0.366117C0.362939 0.600537 0.231243 0.918479 0.231243 1.25V13.6875V13.75H0.229994Z" fill="white"/>
</svg>
