<svg width="7" height="15" viewBox="0 0 7 15" fill="none" xmlns="http://www.w3.org/2000/svg">
<path d="M6.76996 1.25C6.76996 0.978576 6.68162 0.714527 6.51828 0.497753C6.35494 0.28098 6.12547 0.123263 5.86457 0.0484357C5.60366 -0.0263914 5.32549 -0.0142627 5.07208 0.0829897C4.81868 0.180242 4.60382 0.357333 4.45996 0.587501L1.10121 3.94625C0.981827 4.06156 0.886599 4.19949 0.821087 4.352C0.755576 4.5045 0.721094 4.66852 0.719652 4.8345C0.718209 5.00047 0.749836 5.16507 0.812687 5.31869C0.875538 5.47231 0.968355 5.61188 1.08572 5.72924C1.20309 5.84661 1.34265 5.93943 1.49627 6.00228C1.64989 6.06513 1.81449 6.09676 1.98047 6.09531C2.14644 6.09387 2.31046 6.05939 2.46297 5.99388C2.61547 5.92837 2.75341 5.83314 2.86871 5.71375L4.26996 4.31375V13.75C4.26996 14.0815 4.40166 14.3995 4.63608 14.6339C4.8705 14.8683 5.18844 15 5.51996 15C5.85148 15 6.16943 14.8683 6.40385 14.6339C6.63827 14.3995 6.76996 14.0815 6.76996 13.75V1.3125V1.25Z" fill="white"/>
</svg>
